# xmcd
#
# Track frame offsets: 
#        150
#        18454
#        36902
#        55017
#        71981
#        88931
#        107848
#        126470
#        146831
#        164736
#        181885
#        200115
#        215939
#
# Disc length: 3094 seconds
#
# Revision: 1
# Processed by: cddbd v1.5.2PL0 Copyright (c) Steve Scherf et al.
# Submitted via: ExactAudioCopy v0.99pb5
#
DISCID=d90c140d
DTITLE=Don Markese and David Arkenstone - Christmas Pan Pipes
DYEAR=2003
DGENRE=Christmas
TTITLE0=Angels We Have Heard on High
TTITLE1=Away In A Manger
TTITLE2=God Rest Ye Merry, Gentlemen
TTITLE3=It Came Upon a Midnight Clear
TTITLE4=Carol of The Bells
TTITLE5=The First Noel
TTITLE6=I Saw Three Ships
TTITLE7=Coventry Carol
TTITLE8=The Little Drummer Boyu
TTITLE9=O Holy Night
TTITLE10=What Child is This
TTITLE11=Do You Hear What I hear
TTITLE12=Silent Night! Holy Night!
EXTD=YEAR: 2003
EXTT0=
EXTT1=
EXTT2=
EXTT3=
EXTT4=
EXTT5=
EXTT6=
EXTT7=
EXTT8=
EXTT9=
EXTT10=
EXTT11=
EXTT12=
PLAYORDER=
